<svg xmlns="http://www.w3.org/2000/svg" enable-background="new 0 0 66 66" viewBox="0 0 66 66"><path d="M43.8081,8.7659c-2.0936-1.5512-9.8067-7.2657-10.2178-7.5703c-0.3133-0.2321-0.8314-0.2673-1.1904,0.001
				c-0.9275,0.6877-8.4559,6.2701-10.208,7.5693c-0.2539,0.1895-0.4043,0.4873-0.4043,0.8037c0,9.8228,0,21.9069,0,31.7813
				c0,0.3164,0.1494,0.6143,0.4043,0.8027l9.8037,7.2788v14.5669c0,1.324,2,1.3226,2,0V49.4329l9.8125-7.2793
				c0.2539-0.1885,0.4043-0.4863,0.4043-0.8027c0-9.4413,0-17.1822,0-31.7813C44.2124,9.2532,44.062,8.9554,43.8081,8.7659z
				 M23.7876,19.877l8.208,6.0872v3.4763l-8.208-6.0945V19.877z M23.7876,13.9173l8.208,6.0879v3.4685l-8.208-6.0867V13.9173z
				 M39.1063,7.7713l-5.1107,3.7852V3.9847L39.1063,7.7713z M31.9956,3.9866v7.5688l-5.1025-3.7847L31.9956,3.9866z
				 M33.9956,25.9644l8.2168-6.0884v3.47l-8.2168,6.0952V25.9644z M33.9956,23.4742v-3.4688l8.2168-6.0884v3.469L33.9956,23.4742z
				 M42.2124,11.427l-8.2168,6.0881v-3.4687l6.7908-5.0305l1.426,1.0566V11.427z M23.7876,10.0726l1.4258-1.0571l6.7822,5.0298
				v3.4695l-8.208-6.0867V10.0726z M23.7876,40.8479V25.8365l8.208,6.094v15.012L23.7876,40.8479z M33.9956,46.9432V31.931
				l8.2168-6.0957v15.0127L33.9956,46.9432z"/></svg>